<?xml version="1.0" encoding="UTF-8" standalone="no"?>
<svg
   width="142.42412"
   height="48.052387"
   version="1.1"
   viewBox="0 0 142.42412 48.052387"
   xml:space="preserve"
   id="svg49"
   xmlns="http://www.w3.org/2000/svg"
   xmlns:svg="http://www.w3.org/2000/svg"><defs
     id="defs5"><clipPath
       id="clipPath20"><path
         d="M 0,768 H 1366 V 0 H 0 Z"
         id="path2" /></clipPath></defs><g
     transform="matrix(1.3333,0,0,-1.3333,-1048.6,472.56239)"
     id="g47"><g
       transform="matrix(0.15827,0,0,0.15731,814.24,354.38)"
       fill="#ffffff"
       id="g9"><path
         d="M 0,0 -7,-37.667 5.333,-37 Z"
         fill="#ffffff"
         id="path7" /></g><g
       transform="matrix(0.15827,0,0,0.15731,738.32,272.69)"
       fill="#ffffff"
       id="g29"><g
         clip-path="url(#clipPath20)"
         fill="#ffffff"
         id="g27"><g
           transform="translate(465.67,466)"
           id="g13"><path
             d="M 0,0 C 0,0 33.999,1.333 49.666,-11.667 65.333,-24.667 67,-44 67,-44 67,-44 56.667,-31 36,-29.333 26.667,-7.333 0,0 0,0"
             fill="#ffffff"
             id="path11" /></g><g
           transform="translate(419.67,403)"
           id="g17"><path
             d="M 0,0 C 0,0 19.667,32 64.667,29 109.667,26 123,0.667 123,0.667 l -8.667,-2.334 V -17 l -11,4.667 v 19 l -6,3 V -9.667 L 87.667,-8 V 15.667 L 82.333,17 V -6.333 L 74,-5.667 V 19 l -3.667,0.667 v -25 H 61.667 V 19 C 61.667,19 35.333,24.667 19,3.333 16.667,3 0,0 0,0"
             fill="#ffffff"
             id="path15" /></g><g
           transform="translate(424.33,358.67)"
           id="g21"><path
             d="m 0,0 -19.333,-3.333 c 0,0 -0.334,12.667 20.333,21 3,1.333 19.333,8 54.667,8 C 104.333,25 115.666,11 119.333,7.667 123,4.334 127,-5.333 127,-5.333 L 106.333,-2 c 0,0 -5.666,19.333 -50.666,19.667 C 10.667,18 0,0 0,0"
             fill="#ffffff"
             id="path19" /></g><g
           transform="translate(556.67,342)"
           id="g25"><path
             d="m 0,0 h -33.334 c 0,0 -6.333,4.666 -23.666,7 -17.333,2.333 -70.334,5 -80.334,-7 -2.334,-3 7.667,-10.333 7.667,-10.333 l -2.666,-7 c 0,0 -29,7.999 -29,18.666 0.666,7 31,16.668 85,16 C -22.334,16.666 0,0 0,0"
             fill="#ffffff"
             id="path23" /></g></g></g><g
       fill="#ffffff"
       stroke-width="0.15779"
       id="g45"><text
         transform="scale(1.003,-0.99697)"
         x="784.16656"
         y="-330.19562"
         font-family="'Adobe Caslon Pro'"
         font-size="23.669px"
         id="text35"><tspan
           x="784.16656"
           y="-330.19562"
           id="tspan31">T</tspan><tspan
           x="823.33832 839.07794 854.46265 873.89471"
           y="-329.34354"
           id="tspan33">YLOR</tspan></text><text
         transform="scale(1.003,-0.99697)"
         x="833.78937"
         y="-319.46408"
         font-family="'Myriad Pro'"
         font-size="9.9409px"
         id="text39"><tspan
           x="833.78937"
           y="-319.46408"
           fill="#ffffff"
           stroke-width="0.15779"
           id="tspan37">P</tspan></text><text
         transform="scale(1.003,-0.99697)"
         x="840.34039"
         y="-319.46408"
         font-family="'Myriad Pro'"
         font-size="7.8896px"
         id="text43"><tspan
           x="840.34039 845.6106 852.04852 857.24774 862.13141 867.44897 872.37201 875.25964 880.14325"
           y="-319.46408"
           fill="#ffffff"
           stroke-width="0.15779"
           id="tspan41">ROPERTIES</tspan></text></g></g></svg>
